<?xml version="1.0" encoding="utf-8"?>
<!-- Generator: Adobe Illustrator 25.0.0, SVG Export Plug-In . SVG Version: 6.00 Build 0)  -->
<svg version="1.1" xmlns="http://www.w3.org/2000/svg" xmlns:xlink="http://www.w3.org/1999/xlink" x="0px" y="0px"
	 viewBox="0 0 1366 768" enable-background="new 0 0 1366 768" xml:space="preserve">
<g id="background">
	<g id="bg">
		<path fill="#A8A8FF" d="M231,548.5c-8,0-14.5-6.5-14.5-14.5V159c0-8,6.5-14.5,14.5-14.5h834c8,0,14.5,6.5,14.5,14.5v375
			c0,8-6.5,14.5-14.5,14.5H231z"/>
		<path d="M1065,145c7.72,0,14,6.28,14,14v375c0,7.72-6.28,14-14,14H231c-7.72,0-14-6.28-14-14V159c0-7.72,6.28-14,14-14H1065
			 M1065,144H231c-8.28,0-15,6.72-15,15v375c0,8.28,6.72,15,15,15h834c8.28,0,15-6.72,15-15V159C1080,150.72,1073.28,144,1065,144
			L1065,144z"/>
	</g>
	<rect x="234" y="171" fill="none" width="315" height="45"/>
	<text id="constraintname" transform="matrix(1 0 0 1 234 196.5596)" font-family="'MyriadPro-Regular'" font-size="36px">Constraint Name</text>
</g>
<g id="constraintprop">
	<text id="prop4" transform="matrix(1 0 0 1 432 288)" font-family="'MyriadPro-Regular'" font-size="24px">Prop1</text>
	<text id="prop3" transform="matrix(1 0 0 1 431.6555 332.5439)" font-family="'MyriadPro-Regular'" font-size="24px">Prop1</text>
	<text id="prop2" transform="matrix(1 0 0 1 431.6555 377.5439)" font-family="'MyriadPro-Regular'" font-size="24px">Prop1</text>
	<text id="prop1" transform="matrix(1 0 0 1 431.6555 422.5439)" font-family="'MyriadPro-Regular'" font-size="24px">Prop1</text>
</g>
<g id="constrainton">
	<g id="ongreen">
		<rect x="900.25" y="171.25" fill="#00DA34" width="71.5" height="53.5"/>
		<path d="M971.5,171.5v53h-71v-53H971.5 M972,171h-72v54h72V171L972,171z"/>
	</g>
	<g id="onred">
		<rect x="972.25" y="171.25" fill="#FFA8C6" width="71.5" height="53.5"/>
		<path d="M1043.5,171.5v53h-71v-53H1043.5 M1044,171h-72v54h72V171L1044,171z"/>
	</g>
</g>
<g id="constraintoff">
	<g id="offred">
		<rect x="972.25" y="171.25" fill="#F10033" width="71.5" height="53.5"/>
		<path d="M1043.5,171.5v53h-71v-53H1043.5 M1044,171h-72v54h72V171L1044,171z"/>
	</g>
	<g id="offgreen">
		<rect x="900.25" y="171.25" fill="#B0FFA3" width="71.5" height="53.5"/>
		<path d="M971.5,171.5v53h-71v-53H971.5 M972,171h-72v54h72V171L972,171z"/>
	</g>
</g>
</svg>
