<?xml version="1.0" standalone="no"?>
<!DOCTYPE svg PUBLIC "-//W3C//DTD SVG 20010904//EN"
 "http://www.w3.org/TR/2001/REC-SVG-20010904/DTD/svg10.dtd">
<svg version="1.0" xmlns="http://www.w3.org/2000/svg"
 width="93.000000pt" height="78.000000pt" viewBox="0 0 93.000000 78.000000"
 preserveAspectRatio="xMidYMid meet">

<g transform="translate(0.000000,78.000000) scale(0.100000,-0.100000)"
fill="#000000" stroke="none">
<path d="M441 743 c-18 -35 -30 -99 -32 -171 -1 -40 -4 -70 -7 -67 -7 7 -32
-15 -32 -27 0 -6 8 -4 17 3 9 8 4 -3 -11 -23 -16 -21 -31 -36 -35 -34 -3 2
-31 -34 -61 -80 -55 -84 -74 -97 -109 -75 -12 7 -1 24 49 81 34 39 61 73 58
75 -3 3 -35 -30 -72 -74 -52 -62 -71 -78 -87 -74 -17 5 -19 11 -14 52 11 76
52 99 200 106 27 2 51 8 53 14 5 14 4 14 -102 -5 -95 -16 -140 -34 -149 -59
-4 -8 -9 -37 -13 -64 l-6 -49 93 -21 c135 -32 129 -28 129 -63 l0 -31 23 21
c30 29 83 30 90 2 7 -27 57 -27 80 0 22 26 55 25 84 -2 l23 -21 0 26 c0 31 14
40 90 57 140 31 130 25 130 81 0 78 -28 100 -155 123 -55 10 -106 23 -114 29
-8 7 -17 12 -20 12 -3 0 -5 5 -3 11 1 7 -3 16 -9 20 -8 5 -9 3 -4 -7 5 -8 4
-11 0 -6 -5 4 -8 31 -6 60 1 28 -5 79 -14 111 -22 83 -44 106 -64 69z m57
-178 c1 -66 -1 -174 -5 -240 -8 -119 -8 -120 -33 -120 -25 0 -25 1 -31 105
l-5 105 -2 -103 c-2 -101 -3 -103 -24 -100 -20 3 -24 11 -32 70 -5 38 -12 68
-16 68 -3 0 -12 -21 -18 -47 -19 -71 -23 -75 -60 -62 -18 6 -32 14 -32 17 0 4
23 41 50 82 27 41 50 72 50 67 0 -4 14 0 30 8 17 9 35 13 40 10 6 -4 10 35 10
102 1 266 71 300 78 38z m206 -206 c53 -63 66 -83 55 -90 -33 -21 -54 -9 -94
53 -87 133 -80 118 -53 118 16 -1 43 -24 92 -81z m-129 54 c17 -4 115 -138
115 -157 0 -2 -11 -7 -24 -10 -13 -3 -31 -8 -39 -12 -11 -4 -19 10 -33 55 -10
34 -21 61 -26 61 -4 0 -8 -20 -8 -44 0 -62 -15 -96 -41 -96 -20 0 -21 3 -15
93 3 50 5 100 6 111 0 14 5 17 23 11 12 -3 31 -9 42 -12z m208 -5 c22 -12 37
-49 37 -94 0 -51 -27 -44 -85 24 -90 103 -88 96 -25 87 30 -4 63 -12 73 -17z
m-442 -201 c-13 -13 -15 24 -3 74 7 33 7 32 10 -15 2 -27 -2 -54 -7 -59z m253
29 c6 -29 4 -37 -6 -34 -8 3 -14 24 -15 59 -3 58 8 46 21 -25z"/>
<path d="M453 643 c-8 -3 -13 -23 -13 -50 0 -40 2 -44 23 -41 17 2 23 10 25
39 3 37 -13 60 -35 52z"/>
<path d="M377 144 c-18 -19 0 -24 84 -24 68 0 90 3 87 13 -5 13 -158 23 -171
11z"/>
</g>
</svg>
