<svg width="223" height="200" xmlns="http://www.w3.org/2000/svg" xmlns:xlink="http://www.w3.org/1999/xlink" overflow="hidden">
	<g id="layerRightArrow">

		<!-- Left arrow -->
		<path d="M1060.5 310.563C1060.5 287.791 1037.36 267.904 1004.25 262.211L1004.25 271.586 985.5 251.25 1004.25 234.086 1004.25 243.461C1037.36 249.154 1060.5 269.041 1060.5 291.813Z" fill-rule="evenodd" id = "test"/>
		<path d="M985.5 341.75C1021.49 341.75 1052.41 324.726 1059.17 301.188 1066.94 328.277 1040.27 354.435 999.58 359.612 994.939 360.203 990.225 360.5 985.5 360.5Z" fill-rule="evenodd"/>
		
		<rect  y="220"
	     x="985"
	     height="150"
	     width="90"
	     id = "right_arrow" 
	     style="fill:#000000;fill-rule:evenodd;fill-opacity:0"  />
	</g>
	<g id="layerLeftArrow">
		<!-- Right arrow -->
		<path d="M0 49.9375C0 72.7089 23.1361 92.5964 56.25 98.2893L56.25 88.9142 75 109.25 56.25 126.414 56.25 117.039C23.1361 111.346 2.80375e-05 91.4589 2.80375e-05 68.6875Z" fill-rule="evenodd" transform="matrix(1 -0 -0 -1 840.5 360.5)"/>
		<path d="M75 18.75C39.0079 18.75 8.09047 35.7738 1.33352 59.3125-6.44271 32.2231 20.235 6.06553 60.9199 0.887863 65.5608 0.297252 70.2751-3.60362e-05 75-3.60362e-05Z" fill-rule="evenodd" transform="matrix(1 -0 -0 -1 840.5 360.5)"/>
		
		<rect  y="220"
	     x="825"
	     height="150"
	     width="90"
	     id = "left_arrow"
	     style="fill:#000000;fill-rule:evenodd;fill-opacity:0" />
		</g>
		<g id="layerPlus">
		<!-- "+"" symbol  -->
		<path d="M922.441 210.65 941.651 210.65 941.651 192.911 958.35 192.911 958.35 210.65 977.559 210.65 977.559 227.35 958.35 227.35 958.35 245.089 941.651 245.089 941.651 227.35 922.441 227.35Z"  stroke-width="1.33333" stroke-miterlimit="8" fill-rule="evenodd" />
		<rect  y="190"
	     x="920"
	     height="65"
	     width="60"
	     id = "plus_symbol"
	     style="fill:#000000;fill-rule:evenodd;fill-opacity:0" />
		</g>
		<g id="layerMinus">
		<!-- "-"" symbol -->
		<rect x="922.441" y="373.65" width="55.1174" height="16.6992"  stroke-width="1.33333" stroke-miterlimit="8" />
		<rect  y="370"
	     x="915"
	     height="40"
	     width="70"
	     id = "minus_symbol"
	     style="fill:#000000;fill-rule:evenodd;fill-opacity:0"/>

	</g>
	<g id="layerReload">
		<!-- Reload icon -->
		<path d="M951.5 271.999C946.095 271.999 941.056 273.576 936.801 276.281L931.051 270.531 931.051 286.641 947.161 286.641 940.766 280.246C943.946 278.459 947.6 277.426 951.5 277.426 963.671 277.426 973.573 287.328 973.573 299.5 973.573 302.399 972.996 305.164 971.974 307.702L976.712 310.464C978.182 307.101 979 303.396 979 299.5 979 284.336 966.663 271.999 951.5 271.999Z" />
		<path d="M962.227 318.746C959.048 320.532 955.401 321.573 951.501 321.573 939.33 321.573 929.428 311.671 929.428 299.5 929.428 296.761 929.952 294.15 930.867 291.729L926.136 288.878C924.761 292.149 924 295.736 924 299.5 924 314.664 936.336 327 951.5 327 956.906 327 961.934 325.416 966.191 322.711L971.949 328.47 971.949 312.358 955.838 312.358 962.227 318.746Z" />
		<rect  y="265"
	     x="915"
	     height="70"
	     width="70"
	     id="reload"
	     style="fill:#000000;fill-rule:evenodd;fill-opacity:0"/>
	</g>
</svg>